<mxfile host="app.diagrams.net" agent="Mozilla/5.0 (Windows NT 10.0; Win64; x64; rv:138.0) Gecko/20100101 Firefox/138.0" version="27.0.9">
  <diagram name="Сторінка-1" id="YaiDxMyDj6y1h-0DQMR7">
    <mxGraphModel dx="3497" dy="950" grid="1" gridSize="10" guides="1" tooltips="1" connect="1" arrows="1" fold="1" page="1" pageScale="1" pageWidth="827" pageHeight="1169" math="0" shadow="0">
      <root>
        <mxCell id="0" />
        <mxCell id="1" parent="0" />
        <mxCell id="usuoKQxL6Gx0-WOvF6nN-1" value="&lt;div&gt;&lt;font style=&quot;font-size: 10px;&quot;&gt;&amp;lt;&amp;lt;&lt;i&gt;interface&lt;/i&gt;&amp;gt;&amp;gt;&lt;/font&gt;&lt;/div&gt;&lt;div&gt;&lt;font style=&quot;font-size: 10px;&quot;&gt;&lt;b&gt;DeviceFactory&lt;/b&gt;&lt;/font&gt;&lt;/div&gt;" style="swimlane;fontStyle=0;childLayout=stackLayout;horizontal=1;startSize=26;fillColor=none;horizontalStack=0;resizeParent=1;resizeParentMax=0;resizeLast=0;collapsible=1;marginBottom=0;whiteSpace=wrap;html=1;" vertex="1" parent="1">
          <mxGeometry x="460" y="310" width="200" height="130" as="geometry" />
        </mxCell>
        <mxCell id="usuoKQxL6Gx0-WOvF6nN-2" value="+ createEBook(): EBook" style="text;strokeColor=none;fillColor=none;align=left;verticalAlign=top;spacingLeft=4;spacingRight=4;overflow=hidden;rotatable=0;points=[[0,0.5],[1,0.5]];portConstraint=eastwest;whiteSpace=wrap;html=1;" vertex="1" parent="usuoKQxL6Gx0-WOvF6nN-1">
          <mxGeometry y="26" width="200" height="26" as="geometry" />
        </mxCell>
        <mxCell id="usuoKQxL6Gx0-WOvF6nN-3" value="+ createLaptop(): Laptop" style="text;strokeColor=none;fillColor=none;align=left;verticalAlign=top;spacingLeft=4;spacingRight=4;overflow=hidden;rotatable=0;points=[[0,0.5],[1,0.5]];portConstraint=eastwest;whiteSpace=wrap;html=1;" vertex="1" parent="usuoKQxL6Gx0-WOvF6nN-1">
          <mxGeometry y="52" width="200" height="26" as="geometry" />
        </mxCell>
        <mxCell id="usuoKQxL6Gx0-WOvF6nN-4" value="+ createNetbook(): Netbook" style="text;strokeColor=none;fillColor=none;align=left;verticalAlign=top;spacingLeft=4;spacingRight=4;overflow=hidden;rotatable=0;points=[[0,0.5],[1,0.5]];portConstraint=eastwest;whiteSpace=wrap;html=1;" vertex="1" parent="usuoKQxL6Gx0-WOvF6nN-1">
          <mxGeometry y="78" width="200" height="26" as="geometry" />
        </mxCell>
        <mxCell id="usuoKQxL6Gx0-WOvF6nN-7" value="+ createSmartphone(): Smartphone" style="text;strokeColor=none;fillColor=none;align=left;verticalAlign=top;spacingLeft=4;spacingRight=4;overflow=hidden;rotatable=0;points=[[0,0.5],[1,0.5]];portConstraint=eastwest;whiteSpace=wrap;html=1;" vertex="1" parent="usuoKQxL6Gx0-WOvF6nN-1">
          <mxGeometry y="104" width="200" height="26" as="geometry" />
        </mxCell>
        <mxCell id="usuoKQxL6Gx0-WOvF6nN-33" style="edgeStyle=orthogonalEdgeStyle;rounded=0;orthogonalLoop=1;jettySize=auto;html=1;dashed=1;endArrow=block;endFill=0;" edge="1" parent="1" source="usuoKQxL6Gx0-WOvF6nN-8" target="usuoKQxL6Gx0-WOvF6nN-1">
          <mxGeometry relative="1" as="geometry">
            <Array as="points">
              <mxPoint x="730" y="801" />
              <mxPoint x="730" y="375" />
            </Array>
          </mxGeometry>
        </mxCell>
        <mxCell id="usuoKQxL6Gx0-WOvF6nN-8" value="IProneFactory" style="swimlane;fontStyle=1;align=center;verticalAlign=top;childLayout=stackLayout;horizontal=1;startSize=26;horizontalStack=0;resizeParent=1;resizeParentMax=0;resizeLast=0;collapsible=1;marginBottom=0;whiteSpace=wrap;html=1;" vertex="1" parent="1">
          <mxGeometry x="460" y="732" width="200" height="138" as="geometry" />
        </mxCell>
        <mxCell id="usuoKQxL6Gx0-WOvF6nN-10" value="" style="line;strokeWidth=1;fillColor=none;align=left;verticalAlign=middle;spacingTop=-1;spacingLeft=3;spacingRight=3;rotatable=0;labelPosition=right;points=[];portConstraint=eastwest;strokeColor=inherit;" vertex="1" parent="usuoKQxL6Gx0-WOvF6nN-8">
          <mxGeometry y="26" width="200" height="8" as="geometry" />
        </mxCell>
        <mxCell id="usuoKQxL6Gx0-WOvF6nN-11" value="+ createNetbool(): Netbook" style="text;strokeColor=none;fillColor=none;align=left;verticalAlign=top;spacingLeft=4;spacingRight=4;overflow=hidden;rotatable=0;points=[[0,0.5],[1,0.5]];portConstraint=eastwest;whiteSpace=wrap;html=1;" vertex="1" parent="usuoKQxL6Gx0-WOvF6nN-8">
          <mxGeometry y="34" width="200" height="26" as="geometry" />
        </mxCell>
        <mxCell id="usuoKQxL6Gx0-WOvF6nN-12" value="+ createEBook(): EBook" style="text;strokeColor=none;fillColor=none;align=left;verticalAlign=top;spacingLeft=4;spacingRight=4;overflow=hidden;rotatable=0;points=[[0,0.5],[1,0.5]];portConstraint=eastwest;whiteSpace=wrap;html=1;" vertex="1" parent="usuoKQxL6Gx0-WOvF6nN-8">
          <mxGeometry y="60" width="200" height="26" as="geometry" />
        </mxCell>
        <mxCell id="usuoKQxL6Gx0-WOvF6nN-13" value="+ createSmartphone(): Smartphone" style="text;strokeColor=none;fillColor=none;align=left;verticalAlign=top;spacingLeft=4;spacingRight=4;overflow=hidden;rotatable=0;points=[[0,0.5],[1,0.5]];portConstraint=eastwest;whiteSpace=wrap;html=1;" vertex="1" parent="usuoKQxL6Gx0-WOvF6nN-8">
          <mxGeometry y="86" width="200" height="26" as="geometry" />
        </mxCell>
        <mxCell id="usuoKQxL6Gx0-WOvF6nN-14" value="+ createLaptop(): Laptop" style="text;strokeColor=none;fillColor=none;align=left;verticalAlign=top;spacingLeft=4;spacingRight=4;overflow=hidden;rotatable=0;points=[[0,0.5],[1,0.5]];portConstraint=eastwest;whiteSpace=wrap;html=1;" vertex="1" parent="usuoKQxL6Gx0-WOvF6nN-8">
          <mxGeometry y="112" width="200" height="26" as="geometry" />
        </mxCell>
        <mxCell id="usuoKQxL6Gx0-WOvF6nN-34" style="edgeStyle=orthogonalEdgeStyle;rounded=0;orthogonalLoop=1;jettySize=auto;html=1;dashed=1;endArrow=block;endFill=0;" edge="1" parent="1" source="usuoKQxL6Gx0-WOvF6nN-15" target="usuoKQxL6Gx0-WOvF6nN-1">
          <mxGeometry relative="1" as="geometry" />
        </mxCell>
        <mxCell id="usuoKQxL6Gx0-WOvF6nN-15" value="BalaxyFactory" style="swimlane;fontStyle=1;align=center;verticalAlign=top;childLayout=stackLayout;horizontal=1;startSize=26;horizontalStack=0;resizeParent=1;resizeParentMax=0;resizeLast=0;collapsible=1;marginBottom=0;whiteSpace=wrap;html=1;" vertex="1" parent="1">
          <mxGeometry x="460" y="510" width="200" height="138" as="geometry" />
        </mxCell>
        <mxCell id="usuoKQxL6Gx0-WOvF6nN-16" value="" style="line;strokeWidth=1;fillColor=none;align=left;verticalAlign=middle;spacingTop=-1;spacingLeft=3;spacingRight=3;rotatable=0;labelPosition=right;points=[];portConstraint=eastwest;strokeColor=inherit;" vertex="1" parent="usuoKQxL6Gx0-WOvF6nN-15">
          <mxGeometry y="26" width="200" height="8" as="geometry" />
        </mxCell>
        <mxCell id="usuoKQxL6Gx0-WOvF6nN-17" value="+ createNetbool(): Netbook" style="text;strokeColor=none;fillColor=none;align=left;verticalAlign=top;spacingLeft=4;spacingRight=4;overflow=hidden;rotatable=0;points=[[0,0.5],[1,0.5]];portConstraint=eastwest;whiteSpace=wrap;html=1;" vertex="1" parent="usuoKQxL6Gx0-WOvF6nN-15">
          <mxGeometry y="34" width="200" height="26" as="geometry" />
        </mxCell>
        <mxCell id="usuoKQxL6Gx0-WOvF6nN-18" value="+ createEBook(): EBook" style="text;strokeColor=none;fillColor=none;align=left;verticalAlign=top;spacingLeft=4;spacingRight=4;overflow=hidden;rotatable=0;points=[[0,0.5],[1,0.5]];portConstraint=eastwest;whiteSpace=wrap;html=1;" vertex="1" parent="usuoKQxL6Gx0-WOvF6nN-15">
          <mxGeometry y="60" width="200" height="26" as="geometry" />
        </mxCell>
        <mxCell id="usuoKQxL6Gx0-WOvF6nN-19" value="+ createSmartphone(): Smartphone" style="text;strokeColor=none;fillColor=none;align=left;verticalAlign=top;spacingLeft=4;spacingRight=4;overflow=hidden;rotatable=0;points=[[0,0.5],[1,0.5]];portConstraint=eastwest;whiteSpace=wrap;html=1;" vertex="1" parent="usuoKQxL6Gx0-WOvF6nN-15">
          <mxGeometry y="86" width="200" height="26" as="geometry" />
        </mxCell>
        <mxCell id="usuoKQxL6Gx0-WOvF6nN-20" value="+ createLaptop(): Laptop" style="text;strokeColor=none;fillColor=none;align=left;verticalAlign=top;spacingLeft=4;spacingRight=4;overflow=hidden;rotatable=0;points=[[0,0.5],[1,0.5]];portConstraint=eastwest;whiteSpace=wrap;html=1;" vertex="1" parent="usuoKQxL6Gx0-WOvF6nN-15">
          <mxGeometry y="112" width="200" height="26" as="geometry" />
        </mxCell>
        <mxCell id="usuoKQxL6Gx0-WOvF6nN-35" style="edgeStyle=orthogonalEdgeStyle;rounded=0;orthogonalLoop=1;jettySize=auto;html=1;dashed=1;endArrow=block;endFill=0;" edge="1" parent="1" source="usuoKQxL6Gx0-WOvF6nN-21" target="usuoKQxL6Gx0-WOvF6nN-1">
          <mxGeometry relative="1" as="geometry" />
        </mxCell>
        <mxCell id="usuoKQxL6Gx0-WOvF6nN-21" value="KiaomiFactory" style="swimlane;fontStyle=1;align=center;verticalAlign=top;childLayout=stackLayout;horizontal=1;startSize=26;horizontalStack=0;resizeParent=1;resizeParentMax=0;resizeLast=0;collapsible=1;marginBottom=0;whiteSpace=wrap;html=1;" vertex="1" parent="1">
          <mxGeometry x="460" y="100" width="200" height="138" as="geometry" />
        </mxCell>
        <mxCell id="usuoKQxL6Gx0-WOvF6nN-22" value="" style="line;strokeWidth=1;fillColor=none;align=left;verticalAlign=middle;spacingTop=-1;spacingLeft=3;spacingRight=3;rotatable=0;labelPosition=right;points=[];portConstraint=eastwest;strokeColor=inherit;" vertex="1" parent="usuoKQxL6Gx0-WOvF6nN-21">
          <mxGeometry y="26" width="200" height="8" as="geometry" />
        </mxCell>
        <mxCell id="usuoKQxL6Gx0-WOvF6nN-23" value="+ createNetbool(): Netbook" style="text;strokeColor=none;fillColor=none;align=left;verticalAlign=top;spacingLeft=4;spacingRight=4;overflow=hidden;rotatable=0;points=[[0,0.5],[1,0.5]];portConstraint=eastwest;whiteSpace=wrap;html=1;" vertex="1" parent="usuoKQxL6Gx0-WOvF6nN-21">
          <mxGeometry y="34" width="200" height="26" as="geometry" />
        </mxCell>
        <mxCell id="usuoKQxL6Gx0-WOvF6nN-24" value="+ createEBook(): EBook" style="text;strokeColor=none;fillColor=none;align=left;verticalAlign=top;spacingLeft=4;spacingRight=4;overflow=hidden;rotatable=0;points=[[0,0.5],[1,0.5]];portConstraint=eastwest;whiteSpace=wrap;html=1;" vertex="1" parent="usuoKQxL6Gx0-WOvF6nN-21">
          <mxGeometry y="60" width="200" height="26" as="geometry" />
        </mxCell>
        <mxCell id="usuoKQxL6Gx0-WOvF6nN-25" value="+ createSmartphone(): Smartphone" style="text;strokeColor=none;fillColor=none;align=left;verticalAlign=top;spacingLeft=4;spacingRight=4;overflow=hidden;rotatable=0;points=[[0,0.5],[1,0.5]];portConstraint=eastwest;whiteSpace=wrap;html=1;" vertex="1" parent="usuoKQxL6Gx0-WOvF6nN-21">
          <mxGeometry y="86" width="200" height="26" as="geometry" />
        </mxCell>
        <mxCell id="usuoKQxL6Gx0-WOvF6nN-26" value="+ createLaptop(): Laptop" style="text;strokeColor=none;fillColor=none;align=left;verticalAlign=top;spacingLeft=4;spacingRight=4;overflow=hidden;rotatable=0;points=[[0,0.5],[1,0.5]];portConstraint=eastwest;whiteSpace=wrap;html=1;" vertex="1" parent="usuoKQxL6Gx0-WOvF6nN-21">
          <mxGeometry y="112" width="200" height="26" as="geometry" />
        </mxCell>
        <mxCell id="usuoKQxL6Gx0-WOvF6nN-36" value="&lt;div&gt;&lt;font style=&quot;font-size: 10px;&quot;&gt;&amp;lt;&amp;lt;&lt;i&gt;interface&lt;/i&gt;&amp;gt;&amp;gt;&lt;/font&gt;&lt;/div&gt;&lt;div&gt;&lt;font style=&quot;font-size: 10px;&quot;&gt;&lt;b&gt;Device&lt;/b&gt;&lt;/font&gt;&lt;/div&gt;" style="swimlane;fontStyle=0;childLayout=stackLayout;horizontal=1;startSize=26;fillColor=none;horizontalStack=0;resizeParent=1;resizeParentMax=0;resizeLast=0;collapsible=1;marginBottom=0;whiteSpace=wrap;html=1;" vertex="1" parent="1">
          <mxGeometry x="-860" y="387" width="80" height="52" as="geometry" />
        </mxCell>
        <mxCell id="usuoKQxL6Gx0-WOvF6nN-37" value="+ info(): void" style="text;strokeColor=none;fillColor=none;align=left;verticalAlign=top;spacingLeft=4;spacingRight=4;overflow=hidden;rotatable=0;points=[[0,0.5],[1,0.5]];portConstraint=eastwest;whiteSpace=wrap;html=1;" vertex="1" parent="usuoKQxL6Gx0-WOvF6nN-36">
          <mxGeometry y="26" width="80" height="26" as="geometry" />
        </mxCell>
        <mxCell id="usuoKQxL6Gx0-WOvF6nN-46" style="edgeStyle=orthogonalEdgeStyle;rounded=0;orthogonalLoop=1;jettySize=auto;html=1;endArrow=block;endFill=0;exitX=0.5;exitY=0;exitDx=0;exitDy=0;" edge="1" parent="1" source="usuoKQxL6Gx0-WOvF6nN-41" target="usuoKQxL6Gx0-WOvF6nN-36">
          <mxGeometry relative="1" as="geometry" />
        </mxCell>
        <mxCell id="usuoKQxL6Gx0-WOvF6nN-41" value="&lt;div&gt;&lt;font style=&quot;font-size: 10px;&quot;&gt;&amp;lt;&amp;lt;&lt;i&gt;interface&lt;/i&gt;&amp;gt;&amp;gt;&lt;/font&gt;&lt;/div&gt;&lt;div&gt;&lt;font style=&quot;font-size: 10px;&quot;&gt;&lt;b&gt;Netbook&lt;/b&gt;&lt;/font&gt;&lt;/div&gt;" style="swimlane;fontStyle=0;childLayout=stackLayout;horizontal=1;startSize=26;fillColor=none;horizontalStack=0;resizeParent=1;resizeParentMax=0;resizeLast=0;collapsible=1;marginBottom=0;whiteSpace=wrap;html=1;" vertex="1" parent="1">
          <mxGeometry x="-600" y="387" width="100" height="40" as="geometry">
            <mxRectangle x="-50" y="570" width="100" height="40" as="alternateBounds" />
          </mxGeometry>
        </mxCell>
        <mxCell id="usuoKQxL6Gx0-WOvF6nN-47" style="edgeStyle=orthogonalEdgeStyle;rounded=0;orthogonalLoop=1;jettySize=auto;html=1;endArrow=block;endFill=0;" edge="1" parent="1" source="usuoKQxL6Gx0-WOvF6nN-43" target="usuoKQxL6Gx0-WOvF6nN-36">
          <mxGeometry relative="1" as="geometry">
            <Array as="points">
              <mxPoint x="-200" y="320" />
              <mxPoint x="-720" y="320" />
            </Array>
          </mxGeometry>
        </mxCell>
        <mxCell id="usuoKQxL6Gx0-WOvF6nN-43" value="&lt;div&gt;&lt;font style=&quot;font-size: 10px;&quot;&gt;&amp;lt;&amp;lt;&lt;i&gt;interface&lt;/i&gt;&amp;gt;&amp;gt;&lt;/font&gt;&lt;/div&gt;&lt;div&gt;&lt;b&gt;Laptop&lt;/b&gt;&lt;/div&gt;" style="swimlane;fontStyle=0;childLayout=stackLayout;horizontal=1;startSize=26;fillColor=none;horizontalStack=0;resizeParent=1;resizeParentMax=0;resizeLast=0;collapsible=1;marginBottom=0;whiteSpace=wrap;html=1;" vertex="1" parent="1">
          <mxGeometry x="-250" y="370" width="100" height="40" as="geometry">
            <mxRectangle x="-50" y="570" width="100" height="40" as="alternateBounds" />
          </mxGeometry>
        </mxCell>
        <mxCell id="usuoKQxL6Gx0-WOvF6nN-48" style="edgeStyle=orthogonalEdgeStyle;rounded=0;orthogonalLoop=1;jettySize=auto;html=1;endArrow=block;endFill=0;" edge="1" parent="1" source="usuoKQxL6Gx0-WOvF6nN-44" target="usuoKQxL6Gx0-WOvF6nN-36">
          <mxGeometry relative="1" as="geometry">
            <Array as="points">
              <mxPoint x="20" y="280" />
              <mxPoint x="-720" y="280" />
            </Array>
          </mxGeometry>
        </mxCell>
        <mxCell id="usuoKQxL6Gx0-WOvF6nN-44" value="&lt;div&gt;&lt;font style=&quot;font-size: 10px;&quot;&gt;&amp;lt;&amp;lt;&lt;i&gt;interface&lt;/i&gt;&amp;gt;&amp;gt;&lt;/font&gt;&lt;/div&gt;&lt;div&gt;&lt;b&gt;EBook&lt;/b&gt;&lt;/div&gt;" style="swimlane;fontStyle=0;childLayout=stackLayout;horizontal=1;startSize=26;fillColor=none;horizontalStack=0;resizeParent=1;resizeParentMax=0;resizeLast=0;collapsible=1;marginBottom=0;whiteSpace=wrap;html=1;" vertex="1" parent="1">
          <mxGeometry x="-30" y="370" width="100" height="40" as="geometry">
            <mxRectangle x="-50" y="570" width="100" height="40" as="alternateBounds" />
          </mxGeometry>
        </mxCell>
        <mxCell id="usuoKQxL6Gx0-WOvF6nN-49" style="edgeStyle=orthogonalEdgeStyle;rounded=0;orthogonalLoop=1;jettySize=auto;html=1;endArrow=block;endFill=0;exitX=0.5;exitY=0;exitDx=0;exitDy=0;" edge="1" parent="1" source="usuoKQxL6Gx0-WOvF6nN-45" target="usuoKQxL6Gx0-WOvF6nN-36">
          <mxGeometry relative="1" as="geometry">
            <Array as="points">
              <mxPoint x="290" y="260" />
              <mxPoint x="-720" y="260" />
            </Array>
          </mxGeometry>
        </mxCell>
        <mxCell id="usuoKQxL6Gx0-WOvF6nN-45" value="&lt;div&gt;&lt;font style=&quot;font-size: 10px;&quot;&gt;&amp;lt;&amp;lt;&lt;i&gt;interface&lt;/i&gt;&amp;gt;&amp;gt;&lt;/font&gt;&lt;/div&gt;&lt;div&gt;&lt;font style=&quot;font-size: 10px;&quot;&gt;&lt;b&gt;Smartphone&lt;/b&gt;&lt;/font&gt;&lt;/div&gt;" style="swimlane;fontStyle=0;childLayout=stackLayout;horizontal=1;startSize=26;fillColor=none;horizontalStack=0;resizeParent=1;resizeParentMax=0;resizeLast=0;collapsible=1;marginBottom=0;whiteSpace=wrap;html=1;" vertex="1" parent="1">
          <mxGeometry x="240" y="370" width="100" height="40" as="geometry">
            <mxRectangle x="-50" y="570" width="100" height="40" as="alternateBounds" />
          </mxGeometry>
        </mxCell>
        <mxCell id="usuoKQxL6Gx0-WOvF6nN-88" style="edgeStyle=orthogonalEdgeStyle;rounded=0;orthogonalLoop=1;jettySize=auto;html=1;entryX=0.5;entryY=1;entryDx=0;entryDy=0;exitX=0.5;exitY=0;exitDx=0;exitDy=0;dashed=1;endArrow=block;endFill=0;" edge="1" parent="1" source="usuoKQxL6Gx0-WOvF6nN-51" target="usuoKQxL6Gx0-WOvF6nN-41">
          <mxGeometry relative="1" as="geometry" />
        </mxCell>
        <mxCell id="usuoKQxL6Gx0-WOvF6nN-51" value="IProneNetbook" style="swimlane;fontStyle=1;align=center;verticalAlign=top;childLayout=stackLayout;horizontal=1;startSize=26;horizontalStack=0;resizeParent=1;resizeParentMax=0;resizeLast=0;collapsible=1;marginBottom=0;whiteSpace=wrap;html=1;" vertex="1" parent="1">
          <mxGeometry x="-740" y="653" width="130" height="60" as="geometry" />
        </mxCell>
        <mxCell id="usuoKQxL6Gx0-WOvF6nN-53" value="" style="line;strokeWidth=1;fillColor=none;align=left;verticalAlign=middle;spacingTop=-1;spacingLeft=3;spacingRight=3;rotatable=0;labelPosition=right;points=[];portConstraint=eastwest;strokeColor=inherit;" vertex="1" parent="usuoKQxL6Gx0-WOvF6nN-51">
          <mxGeometry y="26" width="130" height="8" as="geometry" />
        </mxCell>
        <mxCell id="usuoKQxL6Gx0-WOvF6nN-54" value="+ info(): void" style="text;strokeColor=none;fillColor=none;align=left;verticalAlign=top;spacingLeft=4;spacingRight=4;overflow=hidden;rotatable=0;points=[[0,0.5],[1,0.5]];portConstraint=eastwest;whiteSpace=wrap;html=1;" vertex="1" parent="usuoKQxL6Gx0-WOvF6nN-51">
          <mxGeometry y="34" width="130" height="26" as="geometry" />
        </mxCell>
        <mxCell id="usuoKQxL6Gx0-WOvF6nN-90" style="edgeStyle=orthogonalEdgeStyle;rounded=0;orthogonalLoop=1;jettySize=auto;html=1;exitX=0.5;exitY=0;exitDx=0;exitDy=0;dashed=1;endArrow=block;endFill=0;" edge="1" parent="1" source="usuoKQxL6Gx0-WOvF6nN-55" target="usuoKQxL6Gx0-WOvF6nN-41">
          <mxGeometry relative="1" as="geometry" />
        </mxCell>
        <mxCell id="usuoKQxL6Gx0-WOvF6nN-55" value="BalaxyNetbook" style="swimlane;fontStyle=1;align=center;verticalAlign=top;childLayout=stackLayout;horizontal=1;startSize=26;horizontalStack=0;resizeParent=1;resizeParentMax=0;resizeLast=0;collapsible=1;marginBottom=0;whiteSpace=wrap;html=1;" vertex="1" parent="1">
          <mxGeometry x="-500" y="653" width="130" height="60" as="geometry" />
        </mxCell>
        <mxCell id="usuoKQxL6Gx0-WOvF6nN-56" value="" style="line;strokeWidth=1;fillColor=none;align=left;verticalAlign=middle;spacingTop=-1;spacingLeft=3;spacingRight=3;rotatable=0;labelPosition=right;points=[];portConstraint=eastwest;strokeColor=inherit;" vertex="1" parent="usuoKQxL6Gx0-WOvF6nN-55">
          <mxGeometry y="26" width="130" height="8" as="geometry" />
        </mxCell>
        <mxCell id="usuoKQxL6Gx0-WOvF6nN-57" value="+ info(): void" style="text;strokeColor=none;fillColor=none;align=left;verticalAlign=top;spacingLeft=4;spacingRight=4;overflow=hidden;rotatable=0;points=[[0,0.5],[1,0.5]];portConstraint=eastwest;whiteSpace=wrap;html=1;" vertex="1" parent="usuoKQxL6Gx0-WOvF6nN-55">
          <mxGeometry y="34" width="130" height="26" as="geometry" />
        </mxCell>
        <mxCell id="usuoKQxL6Gx0-WOvF6nN-91" style="edgeStyle=orthogonalEdgeStyle;rounded=0;orthogonalLoop=1;jettySize=auto;html=1;dashed=1;endArrow=block;endFill=0;" edge="1" parent="1" source="usuoKQxL6Gx0-WOvF6nN-58" target="usuoKQxL6Gx0-WOvF6nN-41">
          <mxGeometry relative="1" as="geometry" />
        </mxCell>
        <mxCell id="usuoKQxL6Gx0-WOvF6nN-58" value="KiaomiNetbook" style="swimlane;fontStyle=1;align=center;verticalAlign=top;childLayout=stackLayout;horizontal=1;startSize=26;horizontalStack=0;resizeParent=1;resizeParentMax=0;resizeLast=0;collapsible=1;marginBottom=0;whiteSpace=wrap;html=1;" vertex="1" parent="1">
          <mxGeometry x="-615" y="583" width="130" height="60" as="geometry" />
        </mxCell>
        <mxCell id="usuoKQxL6Gx0-WOvF6nN-59" value="" style="line;strokeWidth=1;fillColor=none;align=left;verticalAlign=middle;spacingTop=-1;spacingLeft=3;spacingRight=3;rotatable=0;labelPosition=right;points=[];portConstraint=eastwest;strokeColor=inherit;" vertex="1" parent="usuoKQxL6Gx0-WOvF6nN-58">
          <mxGeometry y="26" width="130" height="8" as="geometry" />
        </mxCell>
        <mxCell id="usuoKQxL6Gx0-WOvF6nN-60" value="+ info(): void" style="text;strokeColor=none;fillColor=none;align=left;verticalAlign=top;spacingLeft=4;spacingRight=4;overflow=hidden;rotatable=0;points=[[0,0.5],[1,0.5]];portConstraint=eastwest;whiteSpace=wrap;html=1;" vertex="1" parent="usuoKQxL6Gx0-WOvF6nN-58">
          <mxGeometry y="34" width="130" height="26" as="geometry" />
        </mxCell>
        <mxCell id="usuoKQxL6Gx0-WOvF6nN-92" style="edgeStyle=orthogonalEdgeStyle;rounded=0;orthogonalLoop=1;jettySize=auto;html=1;dashed=1;endArrow=block;endFill=0;" edge="1" parent="1" source="usuoKQxL6Gx0-WOvF6nN-61" target="usuoKQxL6Gx0-WOvF6nN-43">
          <mxGeometry relative="1" as="geometry" />
        </mxCell>
        <mxCell id="usuoKQxL6Gx0-WOvF6nN-93" style="edgeStyle=orthogonalEdgeStyle;rounded=0;orthogonalLoop=1;jettySize=auto;html=1;dashed=1;endArrow=block;endFill=0;" edge="1" parent="1" source="usuoKQxL6Gx0-WOvF6nN-64" target="usuoKQxL6Gx0-WOvF6nN-43">
          <mxGeometry relative="1" as="geometry" />
        </mxCell>
        <mxCell id="usuoKQxL6Gx0-WOvF6nN-64" value="BalaxyLaptop" style="swimlane;fontStyle=1;align=center;verticalAlign=top;childLayout=stackLayout;horizontal=1;startSize=26;horizontalStack=0;resizeParent=1;resizeParentMax=0;resizeLast=0;collapsible=1;marginBottom=0;whiteSpace=wrap;html=1;" vertex="1" parent="1">
          <mxGeometry x="-170" y="610" width="130" height="60" as="geometry" />
        </mxCell>
        <mxCell id="usuoKQxL6Gx0-WOvF6nN-65" value="" style="line;strokeWidth=1;fillColor=none;align=left;verticalAlign=middle;spacingTop=-1;spacingLeft=3;spacingRight=3;rotatable=0;labelPosition=right;points=[];portConstraint=eastwest;strokeColor=inherit;" vertex="1" parent="usuoKQxL6Gx0-WOvF6nN-64">
          <mxGeometry y="26" width="130" height="8" as="geometry" />
        </mxCell>
        <mxCell id="usuoKQxL6Gx0-WOvF6nN-66" value="+ info(): void" style="text;strokeColor=none;fillColor=none;align=left;verticalAlign=top;spacingLeft=4;spacingRight=4;overflow=hidden;rotatable=0;points=[[0,0.5],[1,0.5]];portConstraint=eastwest;whiteSpace=wrap;html=1;" vertex="1" parent="usuoKQxL6Gx0-WOvF6nN-64">
          <mxGeometry y="34" width="130" height="26" as="geometry" />
        </mxCell>
        <mxCell id="usuoKQxL6Gx0-WOvF6nN-94" style="edgeStyle=orthogonalEdgeStyle;rounded=0;orthogonalLoop=1;jettySize=auto;html=1;dashed=1;endArrow=block;endFill=0;" edge="1" parent="1" source="usuoKQxL6Gx0-WOvF6nN-61" target="usuoKQxL6Gx0-WOvF6nN-43">
          <mxGeometry relative="1" as="geometry" />
        </mxCell>
        <mxCell id="usuoKQxL6Gx0-WOvF6nN-67" value="KiaomiLaptop" style="swimlane;fontStyle=1;align=center;verticalAlign=top;childLayout=stackLayout;horizontal=1;startSize=26;horizontalStack=0;resizeParent=1;resizeParentMax=0;resizeLast=0;collapsible=1;marginBottom=0;whiteSpace=wrap;html=1;" vertex="1" parent="1">
          <mxGeometry x="-360" y="610" width="130" height="60" as="geometry" />
        </mxCell>
        <mxCell id="usuoKQxL6Gx0-WOvF6nN-68" value="" style="line;strokeWidth=1;fillColor=none;align=left;verticalAlign=middle;spacingTop=-1;spacingLeft=3;spacingRight=3;rotatable=0;labelPosition=right;points=[];portConstraint=eastwest;strokeColor=inherit;" vertex="1" parent="usuoKQxL6Gx0-WOvF6nN-67">
          <mxGeometry y="26" width="130" height="8" as="geometry" />
        </mxCell>
        <mxCell id="usuoKQxL6Gx0-WOvF6nN-69" value="+ info(): void" style="text;strokeColor=none;fillColor=none;align=left;verticalAlign=top;spacingLeft=4;spacingRight=4;overflow=hidden;rotatable=0;points=[[0,0.5],[1,0.5]];portConstraint=eastwest;whiteSpace=wrap;html=1;" vertex="1" parent="usuoKQxL6Gx0-WOvF6nN-67">
          <mxGeometry y="34" width="130" height="26" as="geometry" />
        </mxCell>
        <mxCell id="usuoKQxL6Gx0-WOvF6nN-95" style="edgeStyle=orthogonalEdgeStyle;rounded=0;orthogonalLoop=1;jettySize=auto;html=1;exitX=0.5;exitY=0;exitDx=0;exitDy=0;dashed=1;endArrow=block;endFill=0;" edge="1" parent="1" source="usuoKQxL6Gx0-WOvF6nN-70" target="usuoKQxL6Gx0-WOvF6nN-44">
          <mxGeometry relative="1" as="geometry" />
        </mxCell>
        <mxCell id="usuoKQxL6Gx0-WOvF6nN-70" value="IProneEBook" style="swimlane;fontStyle=1;align=center;verticalAlign=top;childLayout=stackLayout;horizontal=1;startSize=26;horizontalStack=0;resizeParent=1;resizeParentMax=0;resizeLast=0;collapsible=1;marginBottom=0;whiteSpace=wrap;html=1;" vertex="1" parent="1">
          <mxGeometry x="60" y="480" width="130" height="60" as="geometry" />
        </mxCell>
        <mxCell id="usuoKQxL6Gx0-WOvF6nN-71" value="" style="line;strokeWidth=1;fillColor=none;align=left;verticalAlign=middle;spacingTop=-1;spacingLeft=3;spacingRight=3;rotatable=0;labelPosition=right;points=[];portConstraint=eastwest;strokeColor=inherit;" vertex="1" parent="usuoKQxL6Gx0-WOvF6nN-70">
          <mxGeometry y="26" width="130" height="8" as="geometry" />
        </mxCell>
        <mxCell id="usuoKQxL6Gx0-WOvF6nN-72" value="+ info(): void" style="text;strokeColor=none;fillColor=none;align=left;verticalAlign=top;spacingLeft=4;spacingRight=4;overflow=hidden;rotatable=0;points=[[0,0.5],[1,0.5]];portConstraint=eastwest;whiteSpace=wrap;html=1;" vertex="1" parent="usuoKQxL6Gx0-WOvF6nN-70">
          <mxGeometry y="34" width="130" height="26" as="geometry" />
        </mxCell>
        <mxCell id="usuoKQxL6Gx0-WOvF6nN-96" style="edgeStyle=orthogonalEdgeStyle;rounded=0;orthogonalLoop=1;jettySize=auto;html=1;exitX=0.5;exitY=0;exitDx=0;exitDy=0;dashed=1;endArrow=block;endFill=0;" edge="1" parent="1" source="usuoKQxL6Gx0-WOvF6nN-73" target="usuoKQxL6Gx0-WOvF6nN-44">
          <mxGeometry relative="1" as="geometry" />
        </mxCell>
        <mxCell id="usuoKQxL6Gx0-WOvF6nN-73" value="BalaxyEBook" style="swimlane;fontStyle=1;align=center;verticalAlign=top;childLayout=stackLayout;horizontal=1;startSize=26;horizontalStack=0;resizeParent=1;resizeParentMax=0;resizeLast=0;collapsible=1;marginBottom=0;whiteSpace=wrap;html=1;" vertex="1" parent="1">
          <mxGeometry x="-130" y="439" width="130" height="60" as="geometry" />
        </mxCell>
        <mxCell id="usuoKQxL6Gx0-WOvF6nN-74" value="" style="line;strokeWidth=1;fillColor=none;align=left;verticalAlign=middle;spacingTop=-1;spacingLeft=3;spacingRight=3;rotatable=0;labelPosition=right;points=[];portConstraint=eastwest;strokeColor=inherit;" vertex="1" parent="usuoKQxL6Gx0-WOvF6nN-73">
          <mxGeometry y="26" width="130" height="8" as="geometry" />
        </mxCell>
        <mxCell id="usuoKQxL6Gx0-WOvF6nN-75" value="+ info(): void" style="text;strokeColor=none;fillColor=none;align=left;verticalAlign=top;spacingLeft=4;spacingRight=4;overflow=hidden;rotatable=0;points=[[0,0.5],[1,0.5]];portConstraint=eastwest;whiteSpace=wrap;html=1;" vertex="1" parent="usuoKQxL6Gx0-WOvF6nN-73">
          <mxGeometry y="34" width="130" height="26" as="geometry" />
        </mxCell>
        <mxCell id="usuoKQxL6Gx0-WOvF6nN-97" style="edgeStyle=orthogonalEdgeStyle;rounded=0;orthogonalLoop=1;jettySize=auto;html=1;dashed=1;endArrow=block;endFill=0;" edge="1" parent="1" source="usuoKQxL6Gx0-WOvF6nN-76" target="usuoKQxL6Gx0-WOvF6nN-44">
          <mxGeometry relative="1" as="geometry" />
        </mxCell>
        <mxCell id="usuoKQxL6Gx0-WOvF6nN-76" value="KiaomiEBook" style="swimlane;fontStyle=1;align=center;verticalAlign=top;childLayout=stackLayout;horizontal=1;startSize=26;horizontalStack=0;resizeParent=1;resizeParentMax=0;resizeLast=0;collapsible=1;marginBottom=0;whiteSpace=wrap;html=1;" vertex="1" parent="1">
          <mxGeometry x="-20" y="570" width="130" height="60" as="geometry" />
        </mxCell>
        <mxCell id="usuoKQxL6Gx0-WOvF6nN-77" value="" style="line;strokeWidth=1;fillColor=none;align=left;verticalAlign=middle;spacingTop=-1;spacingLeft=3;spacingRight=3;rotatable=0;labelPosition=right;points=[];portConstraint=eastwest;strokeColor=inherit;" vertex="1" parent="usuoKQxL6Gx0-WOvF6nN-76">
          <mxGeometry y="26" width="130" height="8" as="geometry" />
        </mxCell>
        <mxCell id="usuoKQxL6Gx0-WOvF6nN-78" value="+ info(): void" style="text;strokeColor=none;fillColor=none;align=left;verticalAlign=top;spacingLeft=4;spacingRight=4;overflow=hidden;rotatable=0;points=[[0,0.5],[1,0.5]];portConstraint=eastwest;whiteSpace=wrap;html=1;" vertex="1" parent="usuoKQxL6Gx0-WOvF6nN-76">
          <mxGeometry y="34" width="130" height="26" as="geometry" />
        </mxCell>
        <mxCell id="usuoKQxL6Gx0-WOvF6nN-98" style="edgeStyle=orthogonalEdgeStyle;rounded=0;orthogonalLoop=1;jettySize=auto;html=1;dashed=1;endArrow=block;endFill=0;" edge="1" parent="1" source="usuoKQxL6Gx0-WOvF6nN-79" target="usuoKQxL6Gx0-WOvF6nN-45">
          <mxGeometry relative="1" as="geometry" />
        </mxCell>
        <mxCell id="usuoKQxL6Gx0-WOvF6nN-79" value="IProneSmartphone" style="swimlane;fontStyle=1;align=center;verticalAlign=top;childLayout=stackLayout;horizontal=1;startSize=26;horizontalStack=0;resizeParent=1;resizeParentMax=0;resizeLast=0;collapsible=1;marginBottom=0;whiteSpace=wrap;html=1;" vertex="1" parent="1">
          <mxGeometry x="225" y="600" width="130" height="60" as="geometry" />
        </mxCell>
        <mxCell id="usuoKQxL6Gx0-WOvF6nN-80" value="" style="line;strokeWidth=1;fillColor=none;align=left;verticalAlign=middle;spacingTop=-1;spacingLeft=3;spacingRight=3;rotatable=0;labelPosition=right;points=[];portConstraint=eastwest;strokeColor=inherit;" vertex="1" parent="usuoKQxL6Gx0-WOvF6nN-79">
          <mxGeometry y="26" width="130" height="8" as="geometry" />
        </mxCell>
        <mxCell id="usuoKQxL6Gx0-WOvF6nN-81" value="+ info(): void" style="text;strokeColor=none;fillColor=none;align=left;verticalAlign=top;spacingLeft=4;spacingRight=4;overflow=hidden;rotatable=0;points=[[0,0.5],[1,0.5]];portConstraint=eastwest;whiteSpace=wrap;html=1;" vertex="1" parent="usuoKQxL6Gx0-WOvF6nN-79">
          <mxGeometry y="34" width="130" height="26" as="geometry" />
        </mxCell>
        <mxCell id="usuoKQxL6Gx0-WOvF6nN-99" style="edgeStyle=orthogonalEdgeStyle;rounded=0;orthogonalLoop=1;jettySize=auto;html=1;dashed=1;endArrow=block;endFill=0;" edge="1" parent="1" source="usuoKQxL6Gx0-WOvF6nN-82" target="usuoKQxL6Gx0-WOvF6nN-45">
          <mxGeometry relative="1" as="geometry" />
        </mxCell>
        <mxCell id="usuoKQxL6Gx0-WOvF6nN-82" value="BalaxySmartphone" style="swimlane;fontStyle=1;align=center;verticalAlign=top;childLayout=stackLayout;horizontal=1;startSize=26;horizontalStack=0;resizeParent=1;resizeParentMax=0;resizeLast=0;collapsible=1;marginBottom=0;whiteSpace=wrap;html=1;" vertex="1" parent="1">
          <mxGeometry x="310" y="530" width="130" height="60" as="geometry" />
        </mxCell>
        <mxCell id="usuoKQxL6Gx0-WOvF6nN-83" value="" style="line;strokeWidth=1;fillColor=none;align=left;verticalAlign=middle;spacingTop=-1;spacingLeft=3;spacingRight=3;rotatable=0;labelPosition=right;points=[];portConstraint=eastwest;strokeColor=inherit;" vertex="1" parent="usuoKQxL6Gx0-WOvF6nN-82">
          <mxGeometry y="26" width="130" height="8" as="geometry" />
        </mxCell>
        <mxCell id="usuoKQxL6Gx0-WOvF6nN-84" value="+ info(): void" style="text;strokeColor=none;fillColor=none;align=left;verticalAlign=top;spacingLeft=4;spacingRight=4;overflow=hidden;rotatable=0;points=[[0,0.5],[1,0.5]];portConstraint=eastwest;whiteSpace=wrap;html=1;" vertex="1" parent="usuoKQxL6Gx0-WOvF6nN-82">
          <mxGeometry y="34" width="130" height="26" as="geometry" />
        </mxCell>
        <mxCell id="usuoKQxL6Gx0-WOvF6nN-100" style="edgeStyle=orthogonalEdgeStyle;rounded=0;orthogonalLoop=1;jettySize=auto;html=1;dashed=1;endArrow=block;endFill=0;" edge="1" parent="1" source="usuoKQxL6Gx0-WOvF6nN-85" target="usuoKQxL6Gx0-WOvF6nN-45">
          <mxGeometry relative="1" as="geometry" />
        </mxCell>
        <mxCell id="usuoKQxL6Gx0-WOvF6nN-85" value="KiaomiSmartphone" style="swimlane;fontStyle=1;align=center;verticalAlign=top;childLayout=stackLayout;horizontal=1;startSize=26;horizontalStack=0;resizeParent=1;resizeParentMax=0;resizeLast=0;collapsible=1;marginBottom=0;whiteSpace=wrap;html=1;" vertex="1" parent="1">
          <mxGeometry x="120" y="680" width="130" height="60" as="geometry" />
        </mxCell>
        <mxCell id="usuoKQxL6Gx0-WOvF6nN-86" value="" style="line;strokeWidth=1;fillColor=none;align=left;verticalAlign=middle;spacingTop=-1;spacingLeft=3;spacingRight=3;rotatable=0;labelPosition=right;points=[];portConstraint=eastwest;strokeColor=inherit;" vertex="1" parent="usuoKQxL6Gx0-WOvF6nN-85">
          <mxGeometry y="26" width="130" height="8" as="geometry" />
        </mxCell>
        <mxCell id="usuoKQxL6Gx0-WOvF6nN-87" value="+ info(): void" style="text;strokeColor=none;fillColor=none;align=left;verticalAlign=top;spacingLeft=4;spacingRight=4;overflow=hidden;rotatable=0;points=[[0,0.5],[1,0.5]];portConstraint=eastwest;whiteSpace=wrap;html=1;" vertex="1" parent="usuoKQxL6Gx0-WOvF6nN-85">
          <mxGeometry y="34" width="130" height="26" as="geometry" />
        </mxCell>
        <mxCell id="usuoKQxL6Gx0-WOvF6nN-102" value="" style="edgeStyle=orthogonalEdgeStyle;rounded=0;orthogonalLoop=1;jettySize=auto;html=1;dashed=1;endArrow=block;endFill=0;" edge="1" parent="1" source="usuoKQxL6Gx0-WOvF6nN-67" target="usuoKQxL6Gx0-WOvF6nN-43">
          <mxGeometry relative="1" as="geometry">
            <mxPoint x="420" y="1000" as="sourcePoint" />
            <mxPoint x="-200" y="410" as="targetPoint" />
          </mxGeometry>
        </mxCell>
        <mxCell id="usuoKQxL6Gx0-WOvF6nN-61" value="IProneLaptop" style="swimlane;fontStyle=1;align=center;verticalAlign=top;childLayout=stackLayout;horizontal=1;startSize=26;horizontalStack=0;resizeParent=1;resizeParentMax=0;resizeLast=0;collapsible=1;marginBottom=0;whiteSpace=wrap;html=1;" vertex="1" parent="1">
          <mxGeometry x="-265" y="536" width="130" height="60" as="geometry" />
        </mxCell>
        <mxCell id="usuoKQxL6Gx0-WOvF6nN-62" value="" style="line;strokeWidth=1;fillColor=none;align=left;verticalAlign=middle;spacingTop=-1;spacingLeft=3;spacingRight=3;rotatable=0;labelPosition=right;points=[];portConstraint=eastwest;strokeColor=inherit;" vertex="1" parent="usuoKQxL6Gx0-WOvF6nN-61">
          <mxGeometry y="26" width="130" height="8" as="geometry" />
        </mxCell>
        <mxCell id="usuoKQxL6Gx0-WOvF6nN-63" value="+ info(): void" style="text;strokeColor=none;fillColor=none;align=left;verticalAlign=top;spacingLeft=4;spacingRight=4;overflow=hidden;rotatable=0;points=[[0,0.5],[1,0.5]];portConstraint=eastwest;whiteSpace=wrap;html=1;" vertex="1" parent="usuoKQxL6Gx0-WOvF6nN-61">
          <mxGeometry y="34" width="130" height="26" as="geometry" />
        </mxCell>
        <mxCell id="usuoKQxL6Gx0-WOvF6nN-104" style="edgeStyle=orthogonalEdgeStyle;rounded=0;orthogonalLoop=1;jettySize=auto;html=1;dashed=1;endArrow=classicThin;endFill=1;" edge="1" parent="1" source="usuoKQxL6Gx0-WOvF6nN-11" target="usuoKQxL6Gx0-WOvF6nN-51">
          <mxGeometry relative="1" as="geometry" />
        </mxCell>
        <mxCell id="usuoKQxL6Gx0-WOvF6nN-105" style="edgeStyle=orthogonalEdgeStyle;rounded=0;orthogonalLoop=1;jettySize=auto;html=1;dashed=1;endArrow=classicThin;endFill=1;" edge="1" parent="1" source="usuoKQxL6Gx0-WOvF6nN-12" target="usuoKQxL6Gx0-WOvF6nN-70">
          <mxGeometry relative="1" as="geometry" />
        </mxCell>
        <mxCell id="usuoKQxL6Gx0-WOvF6nN-106" style="edgeStyle=orthogonalEdgeStyle;rounded=0;orthogonalLoop=1;jettySize=auto;html=1;dashed=1;endArrow=classicThin;endFill=1;" edge="1" parent="1" source="usuoKQxL6Gx0-WOvF6nN-13" target="usuoKQxL6Gx0-WOvF6nN-79">
          <mxGeometry relative="1" as="geometry" />
        </mxCell>
        <mxCell id="usuoKQxL6Gx0-WOvF6nN-107" style="edgeStyle=orthogonalEdgeStyle;rounded=0;orthogonalLoop=1;jettySize=auto;html=1;dashed=1;endArrow=classicThin;endFill=1;" edge="1" parent="1" source="usuoKQxL6Gx0-WOvF6nN-14" target="usuoKQxL6Gx0-WOvF6nN-61">
          <mxGeometry relative="1" as="geometry" />
        </mxCell>
        <mxCell id="usuoKQxL6Gx0-WOvF6nN-108" style="edgeStyle=orthogonalEdgeStyle;rounded=0;orthogonalLoop=1;jettySize=auto;html=1;dashed=1;endArrow=classicThin;endFill=1;" edge="1" parent="1" source="usuoKQxL6Gx0-WOvF6nN-17" target="usuoKQxL6Gx0-WOvF6nN-55">
          <mxGeometry relative="1" as="geometry">
            <Array as="points">
              <mxPoint x="760" y="557" />
              <mxPoint x="760" y="950" />
              <mxPoint x="-440" y="950" />
            </Array>
          </mxGeometry>
        </mxCell>
        <mxCell id="usuoKQxL6Gx0-WOvF6nN-109" style="edgeStyle=orthogonalEdgeStyle;rounded=0;orthogonalLoop=1;jettySize=auto;html=1;dashed=1;endArrow=classicThin;endFill=1;" edge="1" parent="1" source="usuoKQxL6Gx0-WOvF6nN-18" target="usuoKQxL6Gx0-WOvF6nN-73">
          <mxGeometry relative="1" as="geometry">
            <Array as="points">
              <mxPoint x="750" y="583" />
              <mxPoint x="750" y="930" />
              <mxPoint x="-65" y="930" />
            </Array>
          </mxGeometry>
        </mxCell>
        <mxCell id="usuoKQxL6Gx0-WOvF6nN-110" style="edgeStyle=orthogonalEdgeStyle;rounded=0;orthogonalLoop=1;jettySize=auto;html=1;dashed=1;endArrow=classicThin;endFill=1;" edge="1" parent="1" source="usuoKQxL6Gx0-WOvF6nN-19" target="usuoKQxL6Gx0-WOvF6nN-82">
          <mxGeometry relative="1" as="geometry" />
        </mxCell>
        <mxCell id="usuoKQxL6Gx0-WOvF6nN-111" style="edgeStyle=orthogonalEdgeStyle;rounded=0;orthogonalLoop=1;jettySize=auto;html=1;dashed=1;endArrow=classicThin;endFill=1;" edge="1" parent="1" source="usuoKQxL6Gx0-WOvF6nN-20" target="usuoKQxL6Gx0-WOvF6nN-64">
          <mxGeometry relative="1" as="geometry">
            <Array as="points">
              <mxPoint x="710" y="635" />
              <mxPoint x="710" y="900" />
              <mxPoint x="-105" y="900" />
            </Array>
          </mxGeometry>
        </mxCell>
        <mxCell id="usuoKQxL6Gx0-WOvF6nN-112" style="edgeStyle=orthogonalEdgeStyle;rounded=0;orthogonalLoop=1;jettySize=auto;html=1;dashed=1;endArrow=classicThin;endFill=1;" edge="1" parent="1" source="usuoKQxL6Gx0-WOvF6nN-23" target="usuoKQxL6Gx0-WOvF6nN-58">
          <mxGeometry relative="1" as="geometry">
            <Array as="points">
              <mxPoint x="780" y="147" />
              <mxPoint x="780" y="1020" />
              <mxPoint x="-550" y="1020" />
            </Array>
          </mxGeometry>
        </mxCell>
        <mxCell id="usuoKQxL6Gx0-WOvF6nN-113" style="edgeStyle=orthogonalEdgeStyle;rounded=0;orthogonalLoop=1;jettySize=auto;html=1;dashed=1;endArrow=classicThin;endFill=1;" edge="1" parent="1" source="usuoKQxL6Gx0-WOvF6nN-24" target="usuoKQxL6Gx0-WOvF6nN-76">
          <mxGeometry relative="1" as="geometry">
            <Array as="points">
              <mxPoint x="800" y="173" />
              <mxPoint x="800" y="1040" />
              <mxPoint x="45" y="1040" />
            </Array>
          </mxGeometry>
        </mxCell>
        <mxCell id="usuoKQxL6Gx0-WOvF6nN-114" style="edgeStyle=orthogonalEdgeStyle;rounded=0;orthogonalLoop=1;jettySize=auto;html=1;dashed=1;endArrow=classicThin;endFill=1;" edge="1" parent="1" source="usuoKQxL6Gx0-WOvF6nN-25" target="usuoKQxL6Gx0-WOvF6nN-85">
          <mxGeometry relative="1" as="geometry">
            <Array as="points">
              <mxPoint x="820" y="199" />
              <mxPoint x="820" y="980" />
              <mxPoint x="185" y="980" />
            </Array>
          </mxGeometry>
        </mxCell>
        <mxCell id="usuoKQxL6Gx0-WOvF6nN-115" style="edgeStyle=orthogonalEdgeStyle;rounded=0;orthogonalLoop=1;jettySize=auto;html=1;entryX=0.5;entryY=0;entryDx=0;entryDy=0;dashed=1;endArrow=classicThin;endFill=1;" edge="1" parent="1" source="usuoKQxL6Gx0-WOvF6nN-26" target="usuoKQxL6Gx0-WOvF6nN-67">
          <mxGeometry relative="1" as="geometry">
            <Array as="points">
              <mxPoint x="840" y="225" />
              <mxPoint x="840" y="1060" />
              <mxPoint x="-295" y="1060" />
            </Array>
          </mxGeometry>
        </mxCell>
      </root>
    </mxGraphModel>
  </diagram>
</mxfile>
